<?xml version="1.0" encoding="utf-8"?>
<!-- Generator: Adobe Illustrator 24.1.0, SVG Export Plug-In . SVG Version: 6.00 Build 0)  -->
<svg version="1.1" id="Layer_1" xmlns="http://www.w3.org/2000/svg" xmlns:xlink="http://www.w3.org/1999/xlink" x="0px" y="0px"
	 viewBox="0 0 1040 1040" style="enable-background:new 0 0 1040 1040;" xml:space="preserve">
<g>
	<path d="M1017,307.9c0,160.8,0,321.5,0,482.3c-0.5,3.5-1.4,7-1.3,10.4c0.3,11.3-5.3,18.2-15.4,21.9c-7.8,2.9-15.5,6.2-23.5,8.5
		c-148.6,42.6-297.2,85.2-445.8,127.5c-5.3,1.5-11.6,2-16.8,0.6c-154.2-43.8-308.4-88-462.5-132.2c-19.1-5.5-24.2-12-24.3-31.7
		c-0.8-175-1.5-349.9-2-524.9c-0.1-23.2,16-44.7,37-51.2c142.2-43.8,284.5-87.3,426.5-131.5C506.7,82.1,523,82,541,88
		c128.5,42.5,257.2,84.1,385.8,126.1c23.2,7.6,46.2,15.7,69.1,24.2c13,4.8,19.6,14.5,19.4,29.1
		C1015.1,280.9,1016.4,294.4,1017,307.9z M950.8,310.6c-4.2,1.1-7.3,1.8-10.4,2.7C813.8,349.6,687.2,386,560.5,422.1
		c-5.1,1.5-6.6,3.5-6.6,8.5c0.3,139.4,0.4,278.9,0.7,418.3c0,11.4,1.3,22.9,2,35.7c132.3-37.8,263.4-75.2,394.1-112.5
		C950.8,617.8,950.8,464.9,950.8,310.6z M465,657.9c1.7-34.3-9.4-67.2-25.7-98.2c-23.5-44.9-58-80-100.5-107.4
		c-3.3-2.1-6.2-6.5-7.1-10.3c-3.8-15.7-13.2-27-28-32.1c-20.7-7-42-12.4-63.2-17.9c-9-2.3-26.8,6.2-29.5,14.4
		c-2.7,8-7.7,9.6-15.1,10.3c-32.1,3.1-60.9,15.2-83.2,38.4c-22,22.9-35.2,50.7-37.8,83.5c-2.9,36.3,3,70.6,18,103.5
		c19.2,42.2,47.6,77.2,84.4,105.2C226.8,785,281.5,807,345,799.6c31.6-3.7,59.8-16.1,82-39.1C453.9,732.6,466.2,698.4,465,657.9z
		 M158.3,258.6c0,0.8,0.1,1.5,0.1,2.3c2.1,0.8,4.1,1.8,6.3,2.4c117,33.6,234,67.1,351,100.5c3.5,1,7.7,1,11.2,0.1
		c31.2-8.8,62.4-17.9,93.5-27.1c5.4-1.6,10.5-3.8,18.5-6.8C522.6,292.4,409.3,255.6,296,219c-4.1-1.3-9.4-0.7-13.8,0.5
		c-17.3,5-34.4,10.5-51.6,16C206.5,243.2,182.4,250.9,158.3,258.6z M866.9,266.2c0.1-0.8,0.1-1.5,0.2-2.3c-2.4-0.9-4.7-1.9-7.1-2.6
		c-111.3-36.7-222.6-73.4-333.9-110.3c-7.3-2.4-13.9-2.8-21.3-0.3c-16.1,5.5-32.6,9.9-48.8,15.1c-16.9,5.4-33.7,11.1-53.3,17.6
		c5.9,2.3,8.7,3.5,11.6,4.5c101.8,33.6,204,66.2,305.2,101.6c22.9,8,42.5,8.6,64.5,1.3C811.3,281.6,839.2,274.3,866.9,266.2z"/>
	<path d="M376.2,555.5c20.8,31,35.5,63,34.5,99.7c-1.4,53.9-39.2,88.5-90.9,90.5c-44.3,1.7-82.3-14.7-115.8-42.7
		c-6.8-5.7-13.5-11.4-21.9-18.6c36.2-9.2,69.6-18.1,103.3-26c15.6-3.7,25.8-12.5,34.7-25.3C337.9,606.9,357.1,581.6,376.2,555.5z"/>
	<path d="M358,531.4c-35.4,8.8-67.6,17.3-100.1,24.8c-15,3.5-27.1,9.8-36.3,23.1c-18.7,27.2-38.7,53.5-58.7,81
		c-18.8-27.5-32.5-56.1-33.6-90c-0.8-23.7,3.1-45.5,17.7-64.5c14.7-19.2,34.3-30.3,58.5-33.7c54-7.6,97.9,13.6,137.5,47.5
		c2.2,1.9,4.5,3.7,6.7,5.5C351.8,526.8,353.9,528.3,358,531.4z"/>
</g>
</svg>
