<svg xmlns="http://www.w3.org/2000/svg" viewBox="0 0 32 32" height="32" width="32"><path d="M15.999 0C7.164 0 0 7.164 0 16.001c0 7.07 4.584 13.066 10.942 15.183.8.146 1.093-.348 1.093-.772 0-.38-.014-1.386-.022-2.721-4.45.966-5.39-2.145-5.39-2.145-.727-1.848-1.777-2.34-1.777-2.34-1.452-.993.11-.974.11-.974 1.606.114 2.451 1.65 2.451 1.65 1.427 2.444 3.746 1.738 4.657 1.33.145-1.035.558-1.74 1.016-2.14-3.553-.403-7.289-1.777-7.289-7.908 0-1.746.624-3.175 1.648-4.293-.165-.405-.714-2.032.156-4.235 0 0 1.344-.43 4.4 1.64a15.325 15.325 0 014.006-.538c1.358.006 2.728.184 4.006.539 3.054-2.071 4.395-1.64 4.395-1.64.873 2.202.324 3.829.16 4.234 1.025 1.118 1.645 2.547 1.645 4.293 0 6.147-3.742 7.5-7.306 7.895.574.495 1.086 1.47 1.086 2.964 0 2.138-.02 3.864-.02 4.389 0 .428.288.926 1.1.77 6.354-2.12 10.934-8.114 10.934-15.181C32.001 7.164 24.836 0 15.999 0" fill="#1b1817" fill-rule="evenodd"></path></svg>